<?xml version="1.0" encoding="iso-8859-1"?>
<!-- Generator: Adobe Illustrator 19.0.0, SVG Export Plug-In . SVG Version: 6.00 Build 0)  -->
<svg version="1.1" id="Layer_1" xmlns="http://www.w3.org/2000/svg" xmlns:xlink="http://www.w3.org/1999/xlink" x="0px" y="0px"
	 viewBox="0 0 511.996 511.996" style="enable-background:new 0 0 511.996 511.996;" xml:space="preserve">
<rect x="198.678" y="226.668" style="fill:#ED5564;" width="37.34" height="222"/>
<path style="fill:#FFCE54;" d="M426.999,16c0,0-54,9-59,10s-33,8-33,8v19.328l11,10.671h27l63-24.093L471.998,25l9-9H426.999z"/>
<path d="M301.405,53.656l-85.35,21.343c-4.75,1.188-8.094,5.438-8.094,10.344v127.999h-10.406c-5.891,0-10.672,4.781-10.672,10.672
	v147.327c-0.156,0.719-0.234,1.438-0.234,2.203v74.671c0,5.891,4.781,10.656,10.672,10.656h10.141
	c-1.406,7.047-5.141,16.406-14.75,23c-11.531,7.922-29.062,10.531-52.14,7.766c-31.203-3.75-71.578-17.328-120.015-40.391
	c-5.312-2.531-11.688-0.266-14.219,5.047c-2.531,5.328-0.266,11.688,5.062,14.219c60.843,28.953,109.655,43.484,145.937,43.484
	c19.625,0,35.578-4.25,47.796-12.766c17.125-11.953,22.391-29.047,23.906-40.359h10.953c5.891,0,10.656-4.766,10.656-10.656v-40.469
	c0.156-0.719,0.234-1.438,0.234-2.203V277.342c5.781-0.125,10.438-4.844,10.438-10.656v-21.344c0-5.812-4.656-10.531-10.438-10.656
	v-10.672c0-5.891-4.766-10.672-10.672-10.672h-10.906V93.671l77.288-19.328c5.688-1.422,9.188-7.219,7.75-12.938
	C312.905,55.703,307.124,52.219,301.405,53.656z M229.321,416.215L229.321,416.215L229.321,416.215L229.321,416.215z
	 M229.305,437.543h0.016l0,0H229.305h-21.312l0,0c5.875-0.016,10.641-4.781,10.641-10.672c0-5.875-4.766-10.656-10.641-10.656l0,0
	h21.297c-5.891,0-10.656,4.781-10.656,10.656C218.633,432.777,223.415,437.543,229.305,437.543z M229.555,394.872h-21.344V234.686
	h21.344V394.872z"/>
<path d="M506.31,11.719C503.466,0,488.216,0,479.091,0c-35.968,0-112.749,12.875-125.437,15.969
	c-23.25,5.672-38.125,23.766-33.875,41.203c3.281,13.546,17.562,22.64,35.5,22.64c4.469,0,9.031-0.562,13.531-1.656
	c9.281-2.266,43.375-13.156,73.531-24.421c17.594-6.578,31.593-12.391,41.624-17.297c6.25-3.062,10.875-5.734,14.219-8.188
	C505.029,23.25,507.779,17.672,506.31,11.719z M427.905,36.312c-27.625,10.094-56.438,19.25-64.156,21.125
	c-2.844,0.687-5.688,1.03-8.469,1.03c-8.281,0-14.031-3.218-14.781-6.343c-1.031-4.219,5.531-12.344,18.188-15.422
	c11.5-2.797,69.375-12.391,105.874-14.812C455.968,25.625,444.155,30.391,427.905,36.312z"/>
<g>
</g>
<g>
</g>
<g>
</g>
<g>
</g>
<g>
</g>
<g>
</g>
<g>
</g>
<g>
</g>
<g>
</g>
<g>
</g>
<g>
</g>
<g>
</g>
<g>
</g>
<g>
</g>
<g>
</g>
</svg>
