<?xml version="1.0" encoding="iso-8859-1"?>
<!-- Generator: Adobe Illustrator 19.0.0, SVG Export Plug-In . SVG Version: 6.00 Build 0)  -->
<svg version="1.1" id="Layer_1" xmlns="http://www.w3.org/2000/svg" xmlns:xlink="http://www.w3.org/1999/xlink" x="0px" y="0px"
	 viewBox="0 0 511.994 511.994" style="enable-background:new 0 0 511.994 511.994;" xml:space="preserve">
<polygon style="fill:#5D9CEC;" points="130.264,209.247 92.515,177.997 77.015,184.747 57.015,192.997 31.015,232.246 
	31.015,502.744 135.264,499.994 "/>
<polygon style="fill:#ED5564;" points="280.764,209.247 243.013,177.997 227.514,184.747 207.514,192.997 181.514,232.246 
	181.514,502.744 285.764,499.994 "/>
<rect x="408.697" y="117.337" style="fill:#656D78;" width="35.656" height="165"/>
<g>
	<path style="fill:#080808;" d="M488.324,3.998c-3.672-4.593-10.375-5.343-14.984-1.656l-53.327,42.656
		c-2.531,2.031-4,5.094-4,8.344v53.312h-10.688c-5.875,0-10.656,4.781-10.656,10.687v149.312c0,13.75,8.688,25.469,20.875,30
		c-1.922,16.75-9.938,26.75-26.266,33.469c-17.719,7.312-45.141,10.719-90.609,11.156V234.652c0-31.656-23.093-58-53.343-63.093
		V149.34h10.688c5.875,0,10.657-4.781,10.657-10.688c0-5.875-4.781-10.656-10.657-10.656h-42.687
		c-5.875,0-10.656,4.781-10.656,10.656c0,5.906,4.781,10.688,10.656,10.688h10.688v22.219c-30.25,5.093-53.343,31.437-53.343,63.093
		V341.34h-21.345V234.652c0-31.656-23.094-58-53.312-63.093V149.34h10.656c5.891,0,10.656-4.781,10.656-10.688
		c0-5.875-4.765-10.656-10.656-10.656H64.015c-5.906,0-10.687,4.781-10.687,10.656c0,5.906,4.781,10.688,10.687,10.688h10.656
		v22.219c-30.218,5.094-53.343,31.438-53.343,63.093v266.67c0,5.891,4.781,10.672,10.688,10.672h106.655
		c5.891,0,10.656-4.781,10.656-10.672V362.651h21.344v138.671c0,5.891,4.781,10.672,10.656,10.672h106.688
		c5.874,0,10.655-4.781,10.655-10.672V362.62c49.062-0.469,78.094-4.266,98.719-12.766c24.156-9.952,37.156-27.296,39.531-52.89
		c12.625-4.281,21.75-16.25,21.75-30.312v-95.999c5.89,0,10.655-4.766,10.655-10.656v-21.344c0-5.875-4.766-10.656-10.655-10.656
		v-10.656c0-5.906-4.781-10.687-10.656-10.687h-10.688V58.466l49.343-39.468C491.262,15.31,492.012,8.592,488.324,3.998z
		 M128.014,490.65H42.671V234.652c0-23.515,19.14-42.655,42.656-42.655c23.531,0,42.687,19.141,42.687,42.656V490.65z
		 M277.326,490.65h-85.312V234.652c0-23.515,19.125-42.656,42.656-42.656c23.532,0,42.657,19.141,42.657,42.656V490.65H277.326z
		 M426.669,277.34c-5.875,0-10.656-4.797-10.656-10.688h21.312C437.325,272.543,432.544,277.34,426.669,277.34z M437.325,245.34
		h-21.312V127.997h21.312V245.34z"/>
	<path style="fill:#080808;" d="M85.468,202.653c-0.047,0-0.078,0.016-0.141,0.016v-0.016c-12.844,0-32,8.531-32,32v234.67
		c0,5.891,4.781,10.672,10.687,10.672c5.875,0,10.656-4.781,10.656-10.672v-234.67c0-5.718,2.219-7.718,4.375-8.906
		c2.469-1.359,5.453-1.719,6.406-1.75c0,0,0,0,0.016,0c5.891,0,10.672-4.781,10.672-10.656
		C96.14,207.434,91.358,202.653,85.468,202.653z M85.327,223.997L85.327,223.997c0.047,0,0.094,0,0.125,0H85.327z"/>
	<path style="fill:#080808;" d="M234.794,202.653c-0.031,0-0.078,0.016-0.125,0.016v-0.016c-12.859,0-32,8.531-32,32v234.67
		c0,5.891,4.781,10.672,10.656,10.672c5.906,0,10.688-4.781,10.688-10.672v-234.67c0-5.718,2.203-7.718,4.375-8.906
		c2.468-1.359,5.437-1.719,6.406-1.75l0,0c5.891,0,10.672-4.781,10.672-10.656C245.466,207.434,240.685,202.653,234.794,202.653z
		 M234.669,223.997L234.669,223.997c0.031,0,0.062,0,0.109,0H234.669z"/>
</g>
<g>
</g>
<g>
</g>
<g>
</g>
<g>
</g>
<g>
</g>
<g>
</g>
<g>
</g>
<g>
</g>
<g>
</g>
<g>
</g>
<g>
</g>
<g>
</g>
<g>
</g>
<g>
</g>
<g>
</g>
</svg>
