<?xml version="1.0" encoding="iso-8859-1"?>
<!-- Generator: Adobe Illustrator 19.0.0, SVG Export Plug-In . SVG Version: 6.00 Build 0)  -->
<svg version="1.1" id="Layer_1" xmlns="http://www.w3.org/2000/svg" xmlns:xlink="http://www.w3.org/1999/xlink" x="0px" y="0px"
	 viewBox="0 0 512 512" style="enable-background:new 0 0 512 512;" xml:space="preserve">
<path style="fill:#A2B1B7;" d="M411.234,89.872L239.66,503.494c5.387,0.217,10.834,0.336,16.34,0.336
	c103.782,0,187.915-39.466,187.915-88.152s0-325.805,0-325.805H411.234z"/>
<path style="fill:#C4D3D9;" d="M411.234,415.678c0-48.685,0-325.805,0-325.805H68.085c0,0,0,277.121,0,325.805
	c0,46.102,75.445,83.931,171.574,87.817C335.789,499.608,411.234,461.779,411.234,415.678z"/>
<path style="fill:#E0315B;" d="M443.915,89.872C443.915,44.75,359.782,8.17,256,8.17l-21.787,81.702L256,171.574v245.106
	c0,12.033,9.754,21.787,21.787,21.787s21.787-9.754,21.787-21.787V169.362c11.325-1.169,22.252-2.784,32.681-4.8v186.757
	c0,12.033,9.754,21.787,21.787,21.787s21.787-9.754,21.787-21.787V152.808C417.421,137.822,443.915,115.193,443.915,89.872z"/>
<path style="fill:#EA5A7D;" d="M256,8.17c-103.782,0-187.915,36.58-187.915,81.702c0,25.32,26.494,47.949,68.085,62.936v133.149
	c0,12.033,9.754,21.787,21.787,21.787s21.787-9.754,21.787-21.787V164.562c23.306,4.505,49.105,7.012,76.255,7.012V8.17z"/>
<path style="fill:#F5849F;" d="M256,40.851c-82.725,0-149.787,21.947-149.787,49.021c0,8.929,7.299,17.3,20.044,24.511h259.486
	c12.746-7.21,20.044-15.581,20.044-24.511C405.787,62.798,338.725,40.851,256,40.851z"/>
<path style="fill:#E0315B;" d="M126.257,114.383c25.9,14.652,74.302,24.511,129.743,24.511s103.844-9.859,129.743-24.511
	C359.844,99.731,311.442,89.872,256,89.872S152.156,99.731,126.257,114.383z"/>
<path d="M392.134,24.608C355.636,8.739,307.29,0,256,0s-99.636,8.739-136.134,24.608C81.206,41.416,59.915,64.595,59.915,89.872
	v325.805c0,26.894,21.216,51.659,59.74,69.73C156.21,502.556,204.632,512,256,512s99.79-9.444,136.346-26.592
	c38.523-18.071,59.739-42.835,59.739-69.73V89.872C452.085,64.595,430.794,41.416,392.134,24.608z M126.382,39.593
	C160.869,24.598,206.902,16.34,256,16.34s95.131,8.257,129.618,23.252c31.857,13.85,50.127,32.176,50.127,50.279
	c0,19.91-22.451,40.203-60.057,54.283c-3.191,1.195-5.305,4.244-5.305,7.651v199.513c0,7.509-6.108,13.617-13.617,13.617
	c-7.509,0-13.617-6.108-13.617-13.617V164.023c0-2.45-1.099-4.77-2.996-6.323c-1.895-1.552-4.388-2.174-6.789-1.686
	c-10.276,2.071-21.029,3.733-31.961,4.936c-4.141,0.456-7.276,3.955-7.276,8.121v247.61c0,7.509-6.108,13.617-13.617,13.617
	c-7.509,0-13.617-6.108-13.617-13.617V171.559c0-2.175-0.867-4.26-2.41-5.793c-1.532-1.522-3.603-2.377-5.761-2.377
	c-0.048,0-0.9,0.007-0.9,0.007c-0.607,0.004-1.214,0.009-1.824,0.009c-27.019,0-53.049-2.486-77.364-7.389
	c-2.4-0.487-4.893,0.133-6.789,1.686c-1.895,1.551-2.996,3.873-2.996,6.323v121.933c0,7.509-6.108,13.617-13.617,13.617
	s-13.617-6.108-13.617-13.617V151.807c0-3.408-2.114-6.457-5.305-7.651c-37.606-14.081-60.057-34.374-60.057-54.284
	C76.255,71.769,94.525,53.443,126.382,39.593z M435.745,415.678c0,43.354-82.313,79.982-179.745,79.982
	S76.255,459.032,76.255,415.678V126.425c11.147,11.806,27.738,22.389,49.021,30.971v128.562c0,16.518,13.439,29.957,29.957,29.957
	s29.957-13.439,29.957-29.957V173.866c20.847,3.613,42.767,5.574,65.362,5.846v236.969c0,16.518,13.439,29.957,29.957,29.957
	c16.518,0,29.957-13.439,29.957-29.957V176.324c5.515-0.71,10.975-1.533,16.34-2.461v177.456c0,16.518,13.439,29.957,29.957,29.957
	c16.518,0,29.957-13.439,29.957-29.957V157.395c21.283-8.582,37.874-19.164,49.021-30.971V415.678z"/>
<path d="M147.542,132.3c29.091,9.521,67.608,14.764,108.458,14.764s79.367-5.243,108.458-14.764
	c32.382-10.597,49.499-25.269,49.499-42.427c0-9.83-5.961-24.175-34.36-36.684c-4.129-1.82-8.951,0.053-10.771,4.183
	s0.053,8.951,4.183,10.771c15.408,6.787,24.607,14.91,24.607,21.731c0,17.058-53.875,40.851-141.617,40.851
	s-141.617-23.793-141.617-40.851S168.258,49.021,256,49.021c25.621,0,50.814,2.185,72.858,6.319
	c4.434,0.834,8.704-2.089,9.536-6.523c0.832-4.435-2.088-8.704-6.523-9.536c-23.02-4.318-49.257-6.6-75.871-6.6
	c-40.85,0-79.368,5.243-108.457,14.763c-32.383,10.597-49.501,25.27-49.501,42.428S115.16,121.702,147.542,132.3z"/>
<g>
</g>
<g>
</g>
<g>
</g>
<g>
</g>
<g>
</g>
<g>
</g>
<g>
</g>
<g>
</g>
<g>
</g>
<g>
</g>
<g>
</g>
<g>
</g>
<g>
</g>
<g>
</g>
<g>
</g>
</svg>
