<?xml version="1.0" encoding="iso-8859-1"?>
<!-- Generator: Adobe Illustrator 19.0.0, SVG Export Plug-In . SVG Version: 6.00 Build 0)  -->
<svg version="1.1" id="Layer_1" xmlns="http://www.w3.org/2000/svg" xmlns:xlink="http://www.w3.org/1999/xlink" x="0px" y="0px"
	 viewBox="0 0 512 512" style="enable-background:new 0 0 512 512;" xml:space="preserve">
<path style="fill:#FB7B76;" d="M414.134,441.919v11.646c0,25.898-20.993,46.89-46.89,46.89s-46.891-20.993-46.891-46.89v-11.646
	H414.134z"/>
<rect x="320.347" y="400.569" style="fill:#FFF3E6;" width="93.781" height="41.351"/>
<polygon style="fill:#F0C419;" points="367.243,113.471 414.134,113.471 414.134,400.569 320.353,400.569 320.353,113.471 "/>
<polygon style="fill:#FFD7AB;" points="367.243,11.329 414.134,113.471 367.243,113.471 320.353,113.471 "/>
<path style="fill:#D2E3F7;" d="M195.553,181.252c13.21,0,23.915,10.706,23.915,23.904c0,6.605-2.674,12.586-7.001,16.903
	c-4.328,4.328-10.309,7.001-16.914,7.001h-8.123h-57.528h-8.134c-13.198,0-23.904-10.695-23.904-23.904
	c0-6.605,2.674-12.575,7.001-16.903c4.328-4.328,10.309-7.001,16.903-7.001H195.553z"/>
<path style="fill:#A3875E;" d="M211.572,123.429c0,29.217-23.689,52.906-52.906,52.906s-52.906-23.689-52.906-52.906
	c0-13.425,11.17-38.19,23.247-61.04l0.011,0.011l29.648,31.426L188.314,62.4l0.011-0.011
	C200.402,85.239,211.572,110.004,211.572,123.429z"/>
<path style="fill:#FFF3E6;" d="M188.325,62.388l-0.011,0.011l-29.648,31.426L129.018,62.4l-0.011-0.011
	c14.206-26.861,29.659-51.06,29.659-51.06S174.119,35.528,188.325,62.388z"/>
<path style="fill:#97C2F7;" d="M187.43,229.06v242.847c0,15.883-12.881,28.764-28.764,28.764s-28.764-12.881-28.764-28.764V229.06
	H187.43z"/>
<path d="M158.666,512c22.107,0,40.093-17.986,40.093-40.093V240.24c8.207-0.734,15.824-4.276,21.71-10.161
	c6.66-6.644,10.329-15.496,10.329-24.924c0-17.141-12.31-31.454-28.555-34.588c12.693-11.742,20.659-28.525,20.659-47.139
	c0-13.366-8.034-35.064-24.561-66.334c0,0-0.001-0.001-0.001-0.002c-14.26-26.961-29.484-50.857-30.125-51.86
	C166.133,1.972,162.533,0,158.666,0s-7.467,1.972-9.549,5.232c-0.64,1.004-15.865,24.9-30.126,51.863
	c-16.526,31.271-24.56,52.968-24.56,66.334c0,18.609,7.962,35.387,20.649,47.13c-6.863,1.312-13.177,4.635-18.226,9.685
	c-6.655,6.656-10.318,15.503-10.318,24.913c0,18.351,14.103,33.461,32.038,35.081v231.669C118.574,494.014,136.56,512,158.666,512z
	 M158.666,489.342c-9.614,0-17.435-7.822-17.435-17.435V240.389H176.1v231.518C176.102,481.522,168.281,489.342,158.666,489.342z
	 M158.666,32.976c4.52,7.548,10.158,17.22,15.812,27.579l-15.812,16.76l-15.812-16.76C148.509,50.196,154.146,40.525,158.666,32.976
	z M131.809,81.867l18.617,19.734c0.075,0.079,0.157,0.147,0.235,0.224c0.079,0.079,0.15,0.165,0.232,0.242
	c0.068,0.063,0.14,0.118,0.21,0.179c0.139,0.125,0.281,0.246,0.424,0.363c0.153,0.125,0.307,0.244,0.464,0.359
	c0.148,0.109,0.298,0.214,0.45,0.315c0.165,0.11,0.334,0.212,0.504,0.312c0.151,0.088,0.3,0.176,0.453,0.256
	c0.184,0.096,0.369,0.184,0.556,0.27c0.147,0.067,0.292,0.136,0.442,0.196c0.203,0.083,0.409,0.154,0.616,0.224
	c0.139,0.048,0.278,0.099,0.418,0.14c0.225,0.067,0.454,0.12,0.683,0.173c0.127,0.029,0.252,0.065,0.38,0.09
	c0.259,0.05,0.52,0.085,0.782,0.117c0.101,0.012,0.199,0.032,0.3,0.042c0.363,0.035,0.726,0.054,1.09,0.054c0.001,0,0.001,0,0.002,0
	s0.001,0,0.002,0c0.364,0,0.727-0.019,1.09-0.054c0.1-0.009,0.198-0.029,0.298-0.041c0.263-0.032,0.525-0.067,0.785-0.118
	c0.125-0.024,0.247-0.059,0.372-0.087c0.232-0.053,0.463-0.108,0.692-0.176c0.136-0.041,0.271-0.091,0.406-0.136
	c0.212-0.071,0.423-0.145,0.631-0.229c0.144-0.059,0.284-0.125,0.426-0.189c0.193-0.088,0.384-0.178,0.573-0.278
	c0.148-0.078,0.293-0.163,0.438-0.248c0.176-0.102,0.348-0.207,0.519-0.321c0.148-0.099,0.295-0.202,0.438-0.307
	c0.161-0.118,0.318-0.239,0.474-0.366c0.142-0.116,0.281-0.235,0.419-0.358c0.069-0.062,0.143-0.117,0.211-0.18
	c0.083-0.078,0.153-0.163,0.233-0.242c0.077-0.077,0.159-0.144,0.235-0.223l18.617-19.734c13.12,26.938,14.72,37.87,14.72,41.562
	c0,22.925-18.652,41.577-41.577,41.577s-41.577-18.652-41.577-41.577C117.089,119.737,118.689,108.804,131.809,81.867z
	 M109.193,205.156c0-3.359,1.307-6.516,3.683-8.892c2.376-2.376,5.533-3.683,8.892-3.683h73.785c6.94,0,12.586,5.641,12.586,12.575
	c0,3.365-1.304,6.519-3.682,8.891c-2.377,2.376-5.539,3.684-8.905,3.684h-73.785C114.835,217.731,109.193,212.09,109.193,205.156z"
	/>
<path d="M309.024,441.919v11.646c0,32.102,26.118,58.219,58.221,58.219c32.102,0,58.219-26.117,58.219-58.219v-11.646V113.471
	c0-0.043-0.006-0.084-0.007-0.127c-0.002-0.246-0.018-0.493-0.037-0.74c-0.01-0.136-0.017-0.273-0.033-0.408
	c-0.024-0.213-0.061-0.425-0.097-0.638c-0.028-0.169-0.056-0.339-0.092-0.506c-0.036-0.164-0.083-0.327-0.127-0.492
	c-0.057-0.211-0.112-0.421-0.18-0.628c-0.042-0.126-0.091-0.25-0.137-0.375c-0.087-0.236-0.177-0.47-0.279-0.698
	c-0.017-0.039-0.028-0.077-0.046-0.116L377.538,6.603c-0.023-0.049-0.053-0.092-0.077-0.139c-0.191-0.401-0.403-0.788-0.638-1.161
	c-0.04-0.063-0.076-0.13-0.117-0.193c-0.262-0.398-0.549-0.776-0.859-1.137c-0.075-0.087-0.153-0.169-0.231-0.254
	c-0.263-0.289-0.539-0.564-0.83-0.825c-0.076-0.068-0.148-0.139-0.227-0.205c-0.358-0.304-0.735-0.585-1.131-0.843
	c-0.076-0.05-0.154-0.093-0.231-0.14c-0.35-0.216-0.711-0.414-1.085-0.593c-0.083-0.04-0.164-0.082-0.248-0.12
	c-0.443-0.198-0.897-0.372-1.369-0.513c-0.052-0.016-0.105-0.026-0.157-0.041c-0.412-0.117-0.835-0.208-1.265-0.279
	c-0.119-0.019-0.237-0.039-0.357-0.054C368.236,0.044,367.745,0,367.244,0s-0.991,0.044-1.475,0.106
	c-0.119,0.016-0.237,0.035-0.356,0.054c-0.432,0.07-0.855,0.161-1.27,0.279c-0.051,0.015-0.103,0.024-0.153,0.04
	c-0.471,0.142-0.928,0.315-1.372,0.514c-0.083,0.036-0.161,0.078-0.242,0.117c-0.376,0.179-0.74,0.377-1.091,0.596
	c-0.075,0.046-0.152,0.089-0.227,0.137c-0.395,0.258-0.774,0.54-1.133,0.844c-0.077,0.065-0.148,0.136-0.223,0.203
	c-0.292,0.262-0.57,0.537-0.834,0.827c-0.077,0.085-0.156,0.167-0.23,0.254c-0.308,0.36-0.596,0.738-0.858,1.135
	c-0.042,0.065-0.079,0.133-0.12,0.198c-0.233,0.37-0.444,0.756-0.633,1.152c-0.024,0.05-0.056,0.093-0.079,0.144l-46.892,102.142
	c-0.018,0.039-0.029,0.079-0.048,0.118c-0.101,0.225-0.189,0.457-0.275,0.689c-0.048,0.128-0.097,0.254-0.14,0.383
	c-0.068,0.205-0.123,0.415-0.179,0.624c-0.044,0.164-0.091,0.329-0.127,0.494c-0.036,0.167-0.062,0.335-0.092,0.504
	c-0.036,0.213-0.074,0.426-0.097,0.639c-0.015,0.135-0.023,0.271-0.033,0.407c-0.019,0.247-0.035,0.494-0.037,0.741
	c0,0.043-0.007,0.084-0.007,0.127v328.452H309.024z M367.244,80.22c6.256,0,11.329-5.072,11.329-11.329v-5.73l17.895,38.981H338.02
	l17.895-38.982v5.731C355.916,75.148,360.988,80.22,367.244,80.22z M331.682,124.8h24.234v153.824
	c0,6.257,5.073,11.329,11.329,11.329c6.256,0,11.329-5.072,11.329-11.329V124.8h24.233v264.44h-71.123V124.8H331.682z
	 M331.682,411.897h71.123v18.693h-71.123V411.897z M402.805,453.565c0,19.608-15.952,35.562-35.562,35.562
	s-35.563-15.953-35.563-35.562v-0.317h71.123v0.317H402.805z"/>
<path d="M367.244,312.044c-6.256,0-11.329,5.072-11.329,11.329v13.595c0,6.257,5.073,11.329,11.329,11.329
	c6.256,0,11.329-5.072,11.329-11.329v-13.595C378.573,317.116,373.5,312.044,367.244,312.044z"/>
<g>
</g>
<g>
</g>
<g>
</g>
<g>
</g>
<g>
</g>
<g>
</g>
<g>
</g>
<g>
</g>
<g>
</g>
<g>
</g>
<g>
</g>
<g>
</g>
<g>
</g>
<g>
</g>
<g>
</g>
</svg>
