<?xml version="1.0" encoding="iso-8859-1"?>
<!-- Generator: Adobe Illustrator 19.0.0, SVG Export Plug-In . SVG Version: 6.00 Build 0)  -->
<svg version="1.1" id="Layer_1" xmlns="http://www.w3.org/2000/svg" xmlns:xlink="http://www.w3.org/1999/xlink" x="0px" y="0px"
	 viewBox="0 0 512 512" style="enable-background:new 0 0 512 512;" xml:space="preserve">
<g>
	<path style="fill:#BF9484;" d="M103.128,115.591V88.678c0-29.158,11.583-57.121,32.201-77.738l0,0l0,0
		c20.618,20.618,32.201,48.581,32.201,77.738v26.912"/>
	<path style="fill:#BF9484;" d="M223.879,115.591V43.14c0-17.784,14.417-32.201,32.201-32.201l0,0
		c17.784,0,32.201,14.417,32.201,32.201v72.451"/>
	<polyline style="fill:#BF9484;" points="344.631,115.591 344.631,10.94 409.031,10.94 409.031,115.591 	"/>
</g>
<rect x="103.124" y="115.594" style="fill:#514A51;" width="64.403" height="112.706"/>
<g>
	<rect x="103.124" y="204.144" style="fill:#FFFFFF;" width="64.403" height="24.15"/>
	<rect x="103.124" y="115.594" style="fill:#FFFFFF;" width="64.403" height="24.15"/>
</g>
<polygon style="fill:#F1506E;" points="174.593,256.436 95.175,256.436 95.444,228.97 174.599,228.97 "/>
<rect x="223.875" y="115.594" style="fill:#514A51;" width="64.403" height="112.706"/>
<g>
	<rect x="223.875" y="204.144" style="fill:#FFFFFF;" width="64.403" height="24.15"/>
	<rect x="223.875" y="115.594" style="fill:#FFFFFF;" width="64.403" height="24.15"/>
</g>
<polygon style="fill:#FBB03B;" points="296.306,252.442 216.287,252.442 216.287,228.292 295.891,228.292 "/>
<rect x="344.626" y="115.594" style="fill:#514A51;" width="64.403" height="112.706"/>
<g>
	<rect x="344.626" y="204.144" style="fill:#FFFFFF;" width="64.403" height="24.15"/>
	<rect x="344.626" y="115.594" style="fill:#FFFFFF;" width="64.403" height="24.15"/>
</g>
<g>
	<polygon style="fill:#A65A53;" points="416.811,252.442 337.024,252.299 337.024,228.292 416.811,228.292 	"/>
	<path style="fill:#A65A53;" d="M159.479,252.442v148.712c0,34.666-7.042,68.97-20.697,100.832l0,0
		c-1.302,3.037-5.606,3.037-6.908,0l0,0c-13.655-31.862-20.697-66.167-20.697-100.832V252.442"/>
</g>
<path style="fill:#F1506E;" d="M280.23,252.442v148.712c0,34.666-7.042,68.97-20.697,100.832l0,0c-1.302,3.037-5.606,3.037-6.908,0
	l0,0c-13.655-31.862-20.697-66.167-20.697-100.832V252.442"/>
<path style="fill:#FBB03B;" d="M400.981,252.442v148.712c0,34.666-7.042,68.97-20.697,100.832l0,0c-1.302,3.037-5.606,3.037-6.908,0
	l0,0c-13.655-31.862-20.697-66.167-20.697-100.832V252.442"/>
<path d="M175.265,99.491h-15.472V88.678c0-24.6-8.632-47.872-24.465-66.36c-15.833,18.488-24.465,41.76-24.465,66.36v10.813H95.392
	V88.678c0-31.431,12.24-60.982,34.467-83.209l5.47-5.47l5.47,5.47c22.226,22.227,34.466,51.778,34.466,83.209v10.813H175.265z"/>
<path d="M174.596,245.594H95.175v15.472h8.268v140.087c0,35.916,7.174,70.866,21.322,103.88c1.813,4.232,5.959,6.965,10.563,6.966
	l0,0c4.603,0,8.75-2.734,10.564-6.966c14.148-33.013,21.322-67.964,21.322-103.88V261.066h7.381v-15.472H174.596z M151.743,401.154
	c0,30.562-5.518,60.379-16.414,88.779c-10.897-28.4-16.414-58.217-16.414-88.779V261.066h32.829V401.154z"/>
<rect x="127.146" y="132.138" width="16.503" height="15.472"/>
<rect x="247.825" y="132.138" width="16.503" height="15.472"/>
<rect x="368.504" y="132.138" width="16.503" height="15.472"/>
<rect x="127.146" y="197.119" width="16.503" height="15.472"/>
<rect x="127.146" y="276.541" style="fill:#FFFFFF;" width="15.472" height="31.975"/>
<path d="M296.349,245.594l-80.018-0.445l-0.086,15.472l7.948,0.044v140.487c0,35.916,7.174,70.866,21.322,103.881
	c1.814,4.231,5.961,6.965,10.564,6.965c4.603,0,8.75-2.734,10.564-6.966c14.148-33.013,21.322-67.964,21.322-103.88V261.021
	l8.297,0.046L296.349,245.594z M272.494,401.154c0,30.562-5.518,60.379-16.414,88.779c-10.897-28.4-16.414-58.217-16.414-88.779
	V260.752l32.829,0.183V401.154z"/>
<rect x="247.825" y="276.541" style="fill:#FFFFFF;" width="15.472" height="31.975"/>
<path d="M296.015,99.491h-15.472V43.14c0-13.489-10.975-24.465-24.465-24.465c-13.49,0-24.465,10.976-24.465,24.465v56.351h-15.472
	V43.14c0-22.021,17.915-39.937,39.937-39.937s39.937,17.915,39.937,39.937V99.491z"/>
<path d="M144.416,107.855l13.449-20.174l-12.872-8.582l-9.664,14.496l-9.664-14.496l-12.872,8.582l13.449,20.174H95.392v128.173
	h79.057l0.867-128.173H144.416z M159.681,132.135h-7.777v15.472h7.673l-0.335,49.509h-7.338v15.472h7.232l-0.054,7.968h-48.219
	v-7.968h8.034v-15.472h-8.034v-49.509h8.034v-15.472h-8.034v-8.809h48.877L159.681,132.135z"/>
<path d="M265.167,107.855l13.449-20.174l-12.872-8.582l-9.664,14.496l-9.664-14.496l-12.872,8.582l13.449,20.174h-30.848v128.173
	h79.872V107.855H265.167z M280.544,132.135h-7.962v15.472h7.962v49.509h-7.962v15.472h7.962v7.968h-48.929v-7.968h7.962v-15.472
	h-7.962v-49.509h7.962v-15.472h-7.962v-8.809h48.929V132.135z"/>
<rect x="247.825" y="197.119" width="16.503" height="15.472"/>
<rect x="368.504" y="197.119" width="16.503" height="15.472"/>
<rect x="368.504" y="276.541" style="fill:#FFFFFF;" width="15.472" height="31.975"/>
<polygon points="416.767,99.491 401.295,99.491 401.295,18.675 352.366,18.675 352.366,99.491 336.895,99.491 336.895,3.204 
	416.767,3.204 "/>
<path d="M416.826,244.706l-79.787-0.143l-0.028,15.472l7.935,0.014v141.105c0,35.916,7.174,70.866,21.322,103.881
	c1.814,4.232,5.961,6.965,10.565,6.965c4.603-0.001,8.75-2.734,10.563-6.966c14.148-33.013,21.322-67.964,21.322-103.88v-140.99
	l8.08,0.014L416.826,244.706z M393.246,401.154c0,30.562-5.517,60.378-16.414,88.779c-10.897-28.4-16.414-58.217-16.414-88.779
	V260.077l32.829,0.059V401.154z"/>
<path d="M416.767,107.855h-30.848l13.449-20.174l-12.872-8.582l-9.664,14.496l-9.664-14.496l-12.872,8.582l13.449,20.174h-30.848
	v128.173h79.872V107.855H416.767z M401.295,132.135h-8.034v15.472h8.034v49.509h-8.034v15.472h8.034v7.968h-48.93v-7.968h7.889
	v-15.472h-7.889v-49.509h7.889v-15.472h-7.889v-8.809h48.93V132.135z"/>
<g>
</g>
<g>
</g>
<g>
</g>
<g>
</g>
<g>
</g>
<g>
</g>
<g>
</g>
<g>
</g>
<g>
</g>
<g>
</g>
<g>
</g>
<g>
</g>
<g>
</g>
<g>
</g>
<g>
</g>
</svg>
