<?xml version="1.0" encoding="iso-8859-1"?>
<!-- Generator: Adobe Illustrator 18.0.0, SVG Export Plug-In . SVG Version: 6.00 Build 0)  -->
<!DOCTYPE svg PUBLIC "-//W3C//DTD SVG 1.1//EN" "http://www.w3.org/Graphics/SVG/1.1/DTD/svg11.dtd">
<svg version="1.1" id="Capa_1" xmlns="http://www.w3.org/2000/svg" xmlns:xlink="http://www.w3.org/1999/xlink" x="0px" y="0px"
	 viewBox="0 0 480.34 480.34" style="enable-background:new 0 0 480.34 480.34;" xml:space="preserve">
<g>
	<g id="XMLID_8_">
		<g>
			<path d="M480.09,111.1v317.34c0,0-0.01,0.01-0.01,0.02v27.12c0,2.21-1.79,4-4,4H4.25c-2.21,0-4-1.79-4-4v-27.14
				c0-0.03,0.01-0.05,0.01-0.08V111.1c0-2.21,1.79-4,4-4h16.27V93.94c0-10.76,8.74-19.5,19.5-19.5h86.5c2.2,0,4,1.79,4,4v28.66
				h32.73V32.14c0-6.27,5.11-11.38,11.38-11.38h260.83c6.28,0,11.38,5.11,11.38,11.38v74.96h29.24
				C478.29,107.1,480.09,108.89,480.09,111.1z M472.09,424.44V115.1h-25.24v85.31c0,5.88-4.79,10.66-10.67,10.66h-77.54v10.1
				c0,2.21-1.79,4-4,4h-99.17c-2.21,0-4-1.79-4-4v-10.1h-77.54c-5.88,0-10.67-4.78-10.67-10.66V115.1h-32.73v111.34
				c0,2.21-1.8,4-4,4h-86.5c-10.76,0-19.5-8.75-19.5-19.5V115.1H8.26v309.34H472.09z M472.08,451.58v-19.14H8.25v19.14H472.08z
				 M438.85,200.41V45.02c0-1.47-1.2-2.67-2.67-2.67H173.93c-1.47,0-2.67,1.2-2.67,2.67v155.39c0,1.47,1.2,2.66,2.67,2.66h262.25
				C437.65,203.07,438.85,201.88,438.85,200.41z M438.85,34.7v-2.56c0-1.86-1.51-3.38-3.38-3.38H174.64c-1.86,0-3.38,1.52-3.38,3.38
				v2.56c0.86-0.22,1.75-0.35,2.67-0.35h262.25C437.1,34.35,437.99,34.48,438.85,34.7z M350.64,217.17v-6.1h-91.17v6.1H350.64z
				 M122.53,222.44v-23h-4v11c0,2.21-1.8,4-4,4H29.07c1.49,4.63,5.84,8,10.96,8H122.53z M122.53,191.44v-23h-4v11c0,2.21-1.8,4-4,4
				H29.07c1.49,4.63,5.84,8,10.96,8H122.53z M122.53,160.44v-78h-82.5c-6.35,0-11.5,5.16-11.5,11.5v63.5v6.76
				c3.22-2.37,7.2-3.76,11.5-3.76H122.53z M110.53,206.44v-7h-70.5c-4.75,0-8.83,2.89-10.59,7H110.53z M110.53,175.44v-7h-70.5
				c-4.75,0-8.83,2.89-10.59,7H110.53z"/>
			<path style="fill:#F9F1A5;" d="M472.09,115.1v309.34H8.26V115.1h12.27v95.84c0,10.75,8.74,19.5,19.5,19.5h86.5c2.2,0,4-1.79,4-4
				V115.1h32.73v85.31c0,5.88,4.79,10.66,10.67,10.66h77.54v10.1c0,2.21,1.79,4,4,4h99.17c2.21,0,4-1.79,4-4v-10.1h77.54
				c5.88,0,10.67-4.78,10.67-10.66V115.1H472.09z M460.14,279.87v-21.72c0-12.99-10.57-23.56-23.57-23.56h-1.71
				c-13,0-23.57,10.57-23.57,23.56v21.72c0,13,10.57,23.57,23.57,23.57h1.71C449.57,303.44,460.14,292.87,460.14,279.87z
				 M412.95,394.71v-74.54c0-8.12-6.6-14.73-14.73-14.73H292.83c-8.12,0-14.73,6.61-14.73,14.73v74.54
				c0,8.12,6.61,14.73,14.73,14.73h105.39C406.35,409.44,412.95,402.83,412.95,394.71z M396.53,289.39v-49.06c0-2.21-1.8-4-4-4
				H217.59c-2.21,0-4,1.79-4,4v49.06c0,2.21,1.79,4,4,4h174.94C394.73,293.39,396.53,291.6,396.53,289.39z M233.53,385.59
				c0.46-0.96,0.52-2.06,0.17-3.06l-12.67-36v-13.97c0-2.2-1.79-4-4-4h-2.32l-5.91-16.77c-0.73-2.09-3.01-3.18-5.1-2.45
				l-54.63,19.22h-33.04c-2.21,0-4,1.8-4,4v9.04l-3.6,1.27c-1,0.35-1.82,1.08-2.28,2.04s-0.52,2.06-0.17,3.06l6.05,17.18v42.41
				c0,2.21,1.79,4,4,4h12.33l2.52,7.15c0.58,1.65,2.12,2.68,3.77,2.68c0.44,0,0.89-0.07,1.33-0.23l27.27-9.6h53.78
				c2.21,0,4-1.79,4-4v-16.33l10.22-3.6C232.25,387.28,233.07,386.55,233.53,385.59z M196.56,289.39v-62c0-2.21-1.79-4-4-4h-44
				c-2.21,0-4,1.79-4,4v62c0,2.21,1.79,4,4,4h44C194.77,293.39,196.56,291.6,196.56,289.39z M96.38,288.07
				c0.09-0.52,0.15-1.04,0.15-1.57c0-3.83-2.58-7.69-7.59-10.62l4.61-30.3c0.34-2.18-1.16-4.22-3.35-4.56
				c-2.19-0.33-4.22,1.17-4.55,3.36l-4.33,28.37c-1.69-0.48-3.52-0.88-5.48-1.2l1.13-18.57c0.13-2.21-1.55-4.1-3.75-4.24
				c-2.19-0.12-4.1,1.55-4.24,3.75l-1.11,18.34c-0.76-0.02-1.53-0.04-2.31-0.04c-1,0-1.96,0.03-2.91,0.06l-2.87-29.04
				c-0.22-2.2-2.19-3.8-4.38-3.58c-2.2,0.21-3.8,2.17-3.58,4.37l2.87,29.05c-1.52,0.26-2.96,0.57-4.31,0.94l-4.54-19.65
				c-0.5-2.15-2.66-3.49-4.8-2.99c-2.16,0.5-3.5,2.64-3,4.8l4.8,20.76c-5.46,2.97-8.25,6.99-8.25,10.99c0,0.53,0.05,1.05,0.14,1.57
				l6.96,63.98c0.24,8.12,12.12,12.38,23.87,12.38c11.74,0,23.63-4.26,23.86-12.38L96.38,288.07z"/>
			<rect x="8.25" y="432.44" style="fill:#E2D996;" width="463.83" height="19.14"/>
			<path d="M460.14,258.15v21.72c0,13-10.57,23.57-23.57,23.57h-1.71c-13,0-23.57-10.57-23.57-23.57v-21.72
				c0-12.99,10.57-23.56,23.57-23.56h1.71C449.57,234.59,460.14,245.16,460.14,258.15z M452.14,279.87v-11.66h-32.85v11.66
				c0,8.59,6.99,15.57,15.57,15.57h1.71C445.16,295.44,452.14,288.46,452.14,279.87z M452.14,260.21v-2.06
				c0-7.5-5.34-13.79-12.42-15.24v17.3H452.14z M431.72,260.21v-17.3c-7.09,1.45-12.43,7.74-12.43,15.24v2.06H431.72z"/>
			<path style="fill:#7CC1E0;" d="M452.14,268.21v11.66c0,8.59-6.98,15.57-15.57,15.57h-1.71c-8.58,0-15.57-6.98-15.57-15.57v-11.66
				H452.14z"/>
			<path style="fill:#7CC1E0;" d="M452.14,258.15v2.06h-12.42v-17.3C446.8,244.36,452.14,250.65,452.14,258.15z"/>
			<path style="fill:#7CC1E0;" d="M438.85,45.02v155.39c0,1.47-1.2,2.66-2.67,2.66H173.93c-1.47,0-2.67-1.19-2.67-2.66V45.02
				c0-1.47,1.2-2.67,2.67-2.67h262.25C437.65,42.35,438.85,43.55,438.85,45.02z M434.7,182.33V51.57c0-2.21-1.79-4-4-4H179.41
				c-2.21,0-4,1.79-4,4v130.76c0,2.21,1.79,4,4,4H430.7C432.91,186.33,434.7,184.54,434.7,182.33z"/>
			<path style="fill:#7CC1E0;" d="M438.85,32.14v2.56c-0.86-0.22-1.75-0.35-2.67-0.35H173.93c-0.92,0-1.81,0.13-2.67,0.35v-2.56
				c0-1.86,1.52-3.38,3.38-3.38h260.83C437.34,28.76,438.85,30.28,438.85,32.14z"/>
			<path d="M434.7,51.57v130.76c0,2.21-1.79,4-4,4H179.41c-2.21,0-4-1.79-4-4V51.57c0-2.21,1.79-4,4-4H430.7
				C432.91,47.57,434.7,49.36,434.7,51.57z M426.7,178.33V55.57H183.41v122.76H426.7z"/>
			<path style="fill:#7CC1E0;" d="M431.72,242.91v17.3h-12.43v-2.06C419.29,250.65,424.63,244.36,431.72,242.91z"/>
			<path style="fill:#F2F2F2;" d="M426.7,55.57v122.76H183.41V55.57H426.7z M380.53,161.44v-56c0-2.21-1.8-4-4-4h-17.52
				c-2.21,0-4,1.79-4,4v56c0,2.21,1.79,4,4,4h17.52C378.73,165.44,380.53,163.65,380.53,161.44z M349.17,161.44v-36.82
				c0-2.21-1.79-4-4-4h-17.51c-2.21,0-4,1.79-4,4v36.82c0,2.21,1.79,4,4,4h17.51C347.38,165.44,349.17,163.65,349.17,161.44z
				 M317.81,161.44v-19.22c0-2.21-1.79-4-4-4H296.3c-2.21,0-4,1.79-4,4v19.22c0,2.21,1.79,4,4,4h17.51
				C316.02,165.44,317.81,163.65,317.81,161.44z M286.46,161.44V76.46c0-2.2-1.8-4-4-4h-17.52c-2.21,0-4,1.8-4,4v84.98
				c0,2.21,1.79,4,4,4h17.52C284.66,165.44,286.46,163.65,286.46,161.44z M255.1,161.44v-56c0-2.21-1.79-4-4-4h-17.51
				c-2.21,0-4,1.79-4,4v56c0,2.21,1.79,4,4,4h17.51C253.31,165.44,255.1,163.65,255.1,161.44z"/>
			<path d="M412.95,320.17v74.54c0,8.12-6.6,14.73-14.73,14.73H292.83c-8.12,0-14.73-6.61-14.73-14.73v-74.54
				c0-8.12,6.61-14.73,14.73-14.73h105.39C406.35,305.44,412.95,312.05,412.95,320.17z M404.95,394.71v-74.54
				c0-3.71-3.02-6.73-6.73-6.73H292.83c-3.71,0-6.73,3.02-6.73,6.73v74.54c0,3.71,3.02,6.73,6.73,6.73h105.39
				C401.93,401.44,404.95,398.42,404.95,394.71z"/>
			<path style="fill:#CCCCCC;" d="M404.95,320.17v74.54c0,3.71-3.02,6.73-6.73,6.73H292.83c-3.71,0-6.73-3.02-6.73-6.73v-74.54
				c0-3.71,3.02-6.73,6.73-6.73h105.39C401.93,313.44,404.95,316.46,404.95,320.17z M400.33,393.09v-71.3c0-2.21-1.79-4-4-4h-94
				c-2.21,0-4,1.79-4,4v71.3c0,2.2,1.79,4,4,4h94C398.54,397.09,400.33,395.29,400.33,393.09z M297.24,357.44
				c0-2.69-2.17-4.86-4.86-4.86c-2.68,0-4.85,2.17-4.85,4.86c0,2.68,2.17,4.85,4.85,4.85C295.07,362.29,297.24,360.12,297.24,357.44
				z"/>
			<path d="M400.33,321.79v71.3c0,2.2-1.79,4-4,4h-94c-2.21,0-4-1.8-4-4v-71.3c0-2.21,1.79-4,4-4h94
				C398.54,317.79,400.33,319.58,400.33,321.79z M392.33,389.09v-63.3h-86v63.3H392.33z"/>
			<path d="M396.53,240.33v49.06c0,2.21-1.8,4-4,4H217.59c-2.21,0-4-1.79-4-4v-49.06c0-2.21,1.79-4,4-4h174.94
				C394.73,236.33,396.53,238.12,396.53,240.33z M388.53,285.39v-8.35h-12.84v8.35H388.53z M388.53,269.04v-8.36h-4.66v8.36H388.53z
				 M388.53,252.68v-8.35h-12.84v8.35H388.53z M375.87,269.04v-8.36h-8.36v8.36H375.87z M367.69,285.39v-8.35h-14.21v8.35H367.69z
				 M367.69,252.68v-8.35h-14.21v8.35H367.69z M359.51,269.04v-8.36H345.3v8.36H359.51z M345.48,285.39v-8.35h-14.21v8.35H345.48z
				 M345.48,252.68v-8.35h-14.21v8.35H345.48z M337.3,269.04v-8.36h-14.21v8.36H337.3z M323.27,285.39v-8.35h-36.43v8.35H323.27z
				 M323.27,252.68v-8.35h-14.21v8.35H323.27z M315.09,269.04v-8.36h-14.21v8.36H315.09z M301.06,252.68v-8.35h-14.22v8.35H301.06z
				 M292.88,269.04v-8.36h-14.21v8.36H292.88z M278.84,285.39v-8.35h-14.21v8.35H278.84z M278.84,252.68v-8.35h-14.21v8.35H278.84z
				 M270.67,269.04v-8.36h-14.21v8.36H270.67z M256.63,285.39v-8.35h-14.21v8.35H256.63z M256.63,252.68v-8.35h-14.21v8.35H256.63z
				 M248.46,269.04v-8.36h-14.22v8.36H248.46z M234.42,285.39v-8.35h-12.83v8.35H234.42z M234.42,252.68v-8.35h-12.83v8.35H234.42z
				 M226.24,269.04v-8.36h-4.65v8.36H226.24z"/>
			<path style="fill:#F2F2F2;" d="M392.33,325.79v63.3h-86v-63.3H392.33z M382.33,376.44v-39c0-2.21-1.79-4-4-4c-2.21,0-4,1.79-4,4
				v39c0,2.21,1.79,4,4,4C380.54,380.44,382.33,378.65,382.33,376.44z M367.83,376.44v-13c0-2.21-1.79-4-4-4c-2.21,0-4,1.79-4,4v13
				c0,2.21,1.79,4,4,4C366.04,380.44,367.83,378.65,367.83,376.44z M353.33,376.44v-22c0-2.21-1.79-4-4-4c-2.21,0-4,1.79-4,4v22
				c0,2.21,1.79,4,4,4C351.54,380.44,353.33,378.65,353.33,376.44z M338.83,376.44v-29c0-2.21-1.79-4-4-4c-2.21,0-4,1.79-4,4v29
				c0,2.21,1.79,4,4,4C337.04,380.44,338.83,378.65,338.83,376.44z M324.33,376.44v-13c0-2.21-1.79-4-4-4c-2.21,0-4,1.79-4,4v13
				c0,2.21,1.79,4,4,4C322.54,380.44,324.33,378.65,324.33,376.44z"/>
			<rect x="375.69" y="277.04" style="fill:#569CAF;" width="12.84" height="8.35"/>
			<rect x="383.87" y="260.68" style="fill:#569CAF;" width="4.66" height="8.36"/>
			<rect x="375.69" y="244.33" style="fill:#569CAF;" width="12.84" height="8.35"/>
			<path d="M382.33,337.44v39c0,2.21-1.79,4-4,4c-2.21,0-4-1.79-4-4v-39c0-2.21,1.79-4,4-4
				C380.54,333.44,382.33,335.23,382.33,337.44z"/>
			<path d="M380.53,105.44v56c0,2.21-1.8,4-4,4h-17.52c-2.21,0-4-1.79-4-4v-56c0-2.21,1.79-4,4-4h17.52
				C378.73,101.44,380.53,103.23,380.53,105.44z M372.53,157.44v-48h-9.52v48H372.53z"/>
			<rect x="367.51" y="260.68" style="fill:#569CAF;" width="8.36" height="8.36"/>
			<rect x="363.01" y="109.44" style="fill:#E8653D;" width="9.52" height="48"/>
			<path d="M367.83,363.44v13c0,2.21-1.79,4-4,4c-2.21,0-4-1.79-4-4v-13c0-2.21,1.79-4,4-4
				C366.04,359.44,367.83,361.23,367.83,363.44z"/>
			<rect x="353.48" y="277.04" style="fill:#569CAF;" width="14.21" height="8.35"/>
			<rect x="353.48" y="244.33" style="fill:#569CAF;" width="14.21" height="8.35"/>
			<rect x="345.3" y="260.68" style="fill:#569CAF;" width="14.21" height="8.36"/>
			<path d="M353.33,354.44v22c0,2.21-1.79,4-4,4c-2.21,0-4-1.79-4-4v-22c0-2.21,1.79-4,4-4
				C351.54,350.44,353.33,352.23,353.33,354.44z"/>
			<rect x="259.47" y="211.07" style="fill:#569CAF;" width="91.17" height="6.1"/>
			<path d="M349.17,124.62v36.82c0,2.21-1.79,4-4,4h-17.51c-2.21,0-4-1.79-4-4v-36.82c0-2.21,1.79-4,4-4h17.51
				C347.38,120.62,349.17,122.41,349.17,124.62z M341.17,157.44v-28.82h-9.51v28.82H341.17z"/>
			<rect x="331.27" y="277.04" style="fill:#569CAF;" width="14.21" height="8.35"/>
			<rect x="331.27" y="244.33" style="fill:#569CAF;" width="14.21" height="8.35"/>
			<rect x="331.66" y="128.62" style="fill:#E8653D;" width="9.51" height="28.82"/>
			<path d="M338.83,347.44v29c0,2.21-1.79,4-4,4c-2.21,0-4-1.79-4-4v-29c0-2.21,1.79-4,4-4
				C337.04,343.44,338.83,345.23,338.83,347.44z"/>
			<rect x="323.09" y="260.68" style="fill:#569CAF;" width="14.21" height="8.36"/>
			<path d="M324.33,363.44v13c0,2.21-1.79,4-4,4c-2.21,0-4-1.79-4-4v-13c0-2.21,1.79-4,4-4
				C322.54,359.44,324.33,361.23,324.33,363.44z"/>
			<rect x="286.84" y="277.04" style="fill:#569CAF;" width="36.43" height="8.35"/>
			<rect x="309.06" y="244.33" style="fill:#569CAF;" width="14.21" height="8.35"/>
			<path d="M317.81,142.22v19.22c0,2.21-1.79,4-4,4H296.3c-2.21,0-4-1.79-4-4v-19.22c0-2.21,1.79-4,4-4h17.51
				C316.02,138.22,317.81,140.01,317.81,142.22z M309.81,157.44v-11.22h-9.51v11.22H309.81z"/>
			<rect x="300.88" y="260.68" style="fill:#569CAF;" width="14.21" height="8.36"/>
			<rect x="300.3" y="146.22" style="fill:#E8653D;" width="9.51" height="11.22"/>
			<rect x="286.84" y="244.33" style="fill:#569CAF;" width="14.22" height="8.35"/>
			<path d="M292.38,352.58c2.69,0,4.86,2.17,4.86,4.86c0,2.68-2.17,4.85-4.86,4.85c-2.68,0-4.85-2.17-4.85-4.85
				C287.53,354.75,289.7,352.58,292.38,352.58z"/>
			<rect x="278.67" y="260.68" style="fill:#569CAF;" width="14.21" height="8.36"/>
			<path d="M286.46,76.46v84.98c0,2.21-1.8,4-4,4h-17.52c-2.21,0-4-1.79-4-4V76.46c0-2.2,1.79-4,4-4h17.52
				C284.66,72.46,286.46,74.26,286.46,76.46z M278.46,157.44V80.46h-9.52v76.98H278.46z"/>
			<rect x="264.63" y="277.04" style="fill:#569CAF;" width="14.21" height="8.35"/>
			<rect x="264.63" y="244.33" style="fill:#569CAF;" width="14.21" height="8.35"/>
			<rect x="268.94" y="80.46" style="fill:#E8653D;" width="9.52" height="76.98"/>
			<rect x="256.46" y="260.68" style="fill:#569CAF;" width="14.21" height="8.36"/>
			<rect x="242.42" y="277.04" style="fill:#569CAF;" width="14.21" height="8.35"/>
			<rect x="242.42" y="244.33" style="fill:#569CAF;" width="14.21" height="8.35"/>
			<path d="M255.1,105.44v56c0,2.21-1.79,4-4,4h-17.51c-2.21,0-4-1.79-4-4v-56c0-2.21,1.79-4,4-4h17.51
				C253.31,101.44,255.1,103.23,255.1,105.44z M247.1,157.44v-48h-9.51v48H247.1z"/>
			<rect x="234.24" y="260.68" style="fill:#569CAF;" width="14.22" height="8.36"/>
			<rect x="237.59" y="109.44" style="fill:#E8653D;" width="9.51" height="48"/>
			<rect x="221.59" y="277.04" style="fill:#569CAF;" width="12.83" height="8.35"/>
			<rect x="221.59" y="244.33" style="fill:#569CAF;" width="12.83" height="8.35"/>
			<path d="M233.7,382.53c0.35,1,0.29,2.1-0.17,3.06c-0.46,0.96-1.28,1.69-2.28,2.04l-10.22,3.6v16.33c0,2.21-1.79,4-4,4h-53.78
				l-27.27,9.6c-0.44,0.16-0.89,0.23-1.33,0.23c-1.65,0-3.19-1.03-3.77-2.68l-2.52-7.15h-12.33c-2.21,0-4-1.79-4-4v-42.41
				l-6.05-17.18c-0.35-1-0.29-2.1,0.17-3.06s1.28-1.69,2.28-2.04l3.6-1.27v-9.04c0-2.2,1.79-4,4-4h33.04l54.63-19.22
				c2.09-0.73,4.37,0.36,5.1,2.45l5.91,16.77h2.32c2.21,0,4,1.8,4,4v13.97L233.7,382.53z M224.82,381.42l-22.24-63.21l-87.72,30.88
				l22.24,63.2L224.82,381.42z M213.03,403.56v-9.51l-27.05,9.51H213.03z M120.03,338.78l6.31-2.22h-6.31V338.78z M125.55,403.56
				l-5.52-15.68v15.68H125.55z"/>
			<rect x="221.59" y="260.68" style="fill:#569CAF;" width="4.65" height="8.36"/>
			<polygon style="fill:#F2F2F2;" points="202.58,318.21 224.82,381.42 137.1,412.29 114.86,349.09 			"/>
			<polygon style="fill:#E6E6E6;" points="213.03,394.05 213.03,403.56 185.98,403.56 			"/>
			<path d="M196.56,227.39v62c0,2.21-1.79,4-4,4h-44c-2.21,0-4-1.79-4-4v-62c0-2.21,1.79-4,4-4h44
				C194.77,223.39,196.56,225.18,196.56,227.39z M188.56,285.39v-8.9v-10.67v-10.66v-15.1v-8.67h-36v8.67v15.1v10.66v10.67v8.9
				H188.56z"/>
			<path style="fill:#999999;" d="M188.56,276.49v8.9h-36v-8.9h1.13c0,2.21,1.79,4,4,4h2.07c2.21,0,4-1.79,4-4h1.77
				c0,2.21,1.79,4,4,4h2.07c2.21,0,4-1.79,4-4h1.76c0,2.21,1.79,4,4,4h2.07c2.21,0,4-1.79,4-4H188.56z"/>
			<path style="fill:#999999;" d="M188.56,265.82v10.67h-1.13c0-2.21-1.79-4-4-4h-2.07c-2.21,0-4,1.79-4,4h-1.76c0-2.21-1.79-4-4-4
				h-2.07c-2.21,0-4,1.79-4,4h-1.77c0-2.21-1.79-4-4-4h-2.07c-2.21,0-4,1.79-4,4h-1.13v-10.67h1.13c0,2.21,1.79,4,4,4h2.07
				c2.21,0,4-1.79,4-4h1.77c0,2.21,1.79,4,4,4h2.07c2.21,0,4-1.79,4-4h1.76c0,2.21,1.79,4,4,4h2.07c2.21,0,4-1.79,4-4H188.56z"/>
			<path style="fill:#999999;" d="M188.56,255.16v10.66h-1.13c0-2.21-1.79-4-4-4h-2.07c-2.21,0-4,1.79-4,4h-1.76c0-2.21-1.79-4-4-4
				h-2.07c-2.21,0-4,1.79-4,4h-1.77c0-2.21-1.79-4-4-4h-2.07c-2.21,0-4,1.79-4,4h-1.13v-10.66h1.13c0,2.21,1.79,4,4,4h2.07
				c2.21,0,4-1.79,4-4h1.77c0,2.21,1.79,4,4,4h2.07c2.21,0,4-1.79,4-4h1.76c0,2.21,1.79,4,4,4h2.07c2.21,0,4-1.79,4-4H188.56z"/>
			<path style="fill:#999999;" d="M188.56,240.06v15.1h-1.13c0-2.21-1.79-4-4-4h-2.07c-2.21,0-4,1.79-4,4h-1.76c0-2.21-1.79-4-4-4
				h-2.07c-2.21,0-4,1.79-4,4h-1.77c0-2.21-1.79-4-4-4h-2.07c-2.21,0-4,1.79-4,4h-1.13v-15.1h1.64c0,2.21,1.79,4,4,4h24.72
				c2.21,0,4-1.79,4-4H188.56z"/>
			<path style="fill:#999999;" d="M188.56,231.39v8.67h-1.64c0-2.21-1.79-4-4-4H158.2c-2.21,0-4,1.79-4,4h-1.64v-8.67H188.56z"/>
			<path d="M183.43,251.16c2.21,0,4,1.79,4,4c0,2.21-1.79,4-4,4h-2.07c-2.21,0-4-1.79-4-4c0-2.21,1.79-4,4-4H183.43z"/>
			<path d="M183.43,261.82c2.21,0,4,1.79,4,4c0,2.21-1.79,4-4,4h-2.07c-2.21,0-4-1.79-4-4c0-2.21,1.79-4,4-4H183.43z"/>
			<path d="M183.43,272.49c2.21,0,4,1.79,4,4c0,2.21-1.79,4-4,4h-2.07c-2.21,0-4-1.79-4-4c0-2.21,1.79-4,4-4H183.43z"/>
			<path d="M182.92,236.06c2.21,0,4,1.79,4,4c0,2.21-1.79,4-4,4H158.2c-2.21,0-4-1.79-4-4c0-2.21,1.79-4,4-4H182.92z"/>
			<path d="M171.6,251.16c2.21,0,4,1.79,4,4c0,2.21-1.79,4-4,4h-2.07c-2.21,0-4-1.79-4-4c0-2.21,1.79-4,4-4H171.6z"/>
			<path d="M171.6,261.82c2.21,0,4,1.79,4,4c0,2.21-1.79,4-4,4h-2.07c-2.21,0-4-1.79-4-4c0-2.21,1.79-4,4-4H171.6z"/>
			<path d="M171.6,272.49c2.21,0,4,1.79,4,4c0,2.21-1.79,4-4,4h-2.07c-2.21,0-4-1.79-4-4c0-2.21,1.79-4,4-4H171.6z"/>
			<path d="M159.76,251.16c2.21,0,4,1.79,4,4c0,2.21-1.79,4-4,4h-2.07c-2.21,0-4-1.79-4-4c0-2.21,1.79-4,4-4H159.76z"/>
			<path d="M159.76,261.82c2.21,0,4,1.79,4,4c0,2.21-1.79,4-4,4h-2.07c-2.21,0-4-1.79-4-4c0-2.21,1.79-4,4-4H159.76z"/>
			<path d="M159.76,272.49c2.21,0,4,1.79,4,4c0,2.21-1.79,4-4,4h-2.07c-2.21,0-4-1.79-4-4c0-2.21,1.79-4,4-4H159.76z"/>
			<polygon style="fill:#E6E6E6;" points="126.34,336.56 120.03,338.78 120.03,336.56 			"/>
			<polygon style="fill:#E6E6E6;" points="120.03,387.88 125.55,403.56 120.03,403.56 			"/>
			<path style="fill:#569CAF;" d="M122.53,199.44v23h-82.5c-5.12,0-9.47-3.37-10.96-8h85.46c2.2,0,4-1.79,4-4v-11H122.53z"/>
			<path style="fill:#569CAF;" d="M122.53,168.44v23h-82.5c-5.12,0-9.47-3.37-10.96-8h85.46c2.2,0,4-1.79,4-4v-11H122.53z"/>
			<path style="fill:#7CC1E0;" d="M122.53,82.44v78h-82.5c-4.3,0-8.28,1.39-11.5,3.76v-6.76v-63.5c0-6.34,5.15-11.5,11.5-11.5
				H122.53z M112.53,115.44v-17c0-2.21-1.8-4-4-4h-57c-2.21,0-4,1.79-4,4v17c0,2.21,1.79,4,4,4h57
				C110.73,119.44,112.53,117.65,112.53,115.44z"/>
			<path d="M112.53,98.44v17c0,2.21-1.8,4-4,4h-57c-2.21,0-4-1.79-4-4v-17c0-2.21,1.79-4,4-4h57
				C110.73,94.44,112.53,96.23,112.53,98.44z M104.53,111.44v-9h-49v9H104.53z"/>
			<path style="fill:#F2F2F2;" d="M110.53,199.44v7H29.44c1.76-4.11,5.84-7,10.59-7H110.53z"/>
			<path style="fill:#F2F2F2;" d="M110.53,168.44v7H29.44c1.76-4.11,5.84-7,10.59-7H110.53z"/>
			<rect x="55.53" y="102.44" style="fill:#F2F2F2;" width="49" height="9"/>
			<path d="M96.53,286.5c0,0.53-0.06,1.05-0.15,1.57l-6.96,63.98c-0.23,8.12-12.12,12.38-23.86,12.38
				c-11.75,0-23.63-4.26-23.87-12.38l-6.96-63.98c-0.09-0.52-0.14-1.04-0.14-1.57c0-4,2.79-8.02,8.25-10.99l-4.8-20.76
				c-0.5-2.16,0.84-4.3,3-4.8c2.14-0.5,4.3,0.84,4.8,2.99l4.54,19.65c1.35-0.37,2.79-0.68,4.31-0.94l-2.87-29.05
				c-0.22-2.2,1.38-4.16,3.58-4.37c2.19-0.22,4.16,1.38,4.38,3.58l2.87,29.04c0.95-0.03,1.91-0.06,2.91-0.06
				c0.78,0,1.55,0.02,2.31,0.04l1.11-18.34c0.14-2.2,2.05-3.87,4.24-3.75c2.2,0.14,3.88,2.03,3.75,4.24l-1.13,18.57
				c1.96,0.32,3.79,0.72,5.48,1.2l4.33-28.37c0.33-2.19,2.36-3.69,4.55-3.36c2.19,0.34,3.69,2.38,3.35,4.56l-4.61,30.3
				C93.95,278.81,96.53,282.67,96.53,286.5z M88.53,286.5c0-0.52-0.33-1.12-0.95-1.76l-0.62,4.1
				C87.99,287.99,88.53,287.18,88.53,286.5z M81.45,351.36l5.8-53.33c-5.15,2.53-12.41,4.18-21.69,4.18
				c-9.29,0-16.55-1.65-21.7-4.18l5.8,53.33c0.02,0.15,0.02,0.29,0.02,0.44c0.32,1.36,6.1,4.63,15.88,4.63
				c9.77,0,15.55-3.27,15.87-4.66C81.43,351.62,81.44,351.51,81.45,351.36z M78.28,292.7l1.81-11.87c-1.42-0.45-3-0.85-4.75-1.18
				l-0.84,13.84C75.85,293.27,77.11,293,78.28,292.7z M66.45,294.19l0.93-15.36c-0.6-0.02-1.2-0.04-1.82-0.04
				c-0.73,0-1.42,0.02-2.12,0.05l1.52,15.36c0.2,0,0.39,0.01,0.6,0.01C65.86,294.21,66.15,294.2,66.45,294.19z M56.86,293.53
				l-1.37-13.82c-1.17,0.22-2.27,0.48-3.29,0.76l2.94,12.75C55.7,293.34,56.27,293.44,56.86,293.53z M46.24,290.21l-1.5-6.48
				c-1.4,1-2.15,1.98-2.15,2.77C42.59,287.54,43.87,288.91,46.24,290.21z"/>
			<path style="fill:#569CAF;" d="M87.58,284.74c0.62,0.64,0.95,1.24,0.95,1.76c0,0.68-0.54,1.49-1.57,2.34L87.58,284.74z"/>
			<path style="fill:#7CC1E0;" d="M87.25,298.03l-5.8,53.33c-0.01,0.15-0.02,0.26-0.02,0.41c-0.32,1.39-6.1,4.66-15.87,4.66
				c-9.78,0-15.56-3.27-15.88-4.63c0-0.15,0-0.29-0.02-0.44l-5.8-53.33c5.15,2.53,12.41,4.18,21.7,4.18
				C74.84,302.21,82.1,300.56,87.25,298.03z"/>
			<path style="fill:#569CAF;" d="M80.09,280.83l-1.81,11.87c-1.17,0.3-2.43,0.57-3.78,0.79l0.84-13.84
				C77.09,279.98,78.67,280.38,80.09,280.83z"/>
			<path style="fill:#569CAF;" d="M67.38,278.83l-0.93,15.36c-0.3,0.01-0.59,0.02-0.89,0.02c-0.21,0-0.4-0.01-0.6-0.01l-1.52-15.36
				c0.7-0.03,1.39-0.05,2.12-0.05C66.18,278.79,66.78,278.81,67.38,278.83z"/>
			<path style="fill:#569CAF;" d="M55.49,279.71l1.37,13.82c-0.59-0.09-1.16-0.19-1.72-0.31l-2.94-12.75
				C53.22,280.19,54.32,279.93,55.49,279.71z"/>
			<path style="fill:#569CAF;" d="M44.74,283.73l1.5,6.48c-2.37-1.3-3.65-2.67-3.65-3.71C42.59,285.71,43.34,284.73,44.74,283.73z"
				/>
		</g>
		<g>
		</g>
	</g>
</g>
<g>
</g>
<g>
</g>
<g>
</g>
<g>
</g>
<g>
</g>
<g>
</g>
<g>
</g>
<g>
</g>
<g>
</g>
<g>
</g>
<g>
</g>
<g>
</g>
<g>
</g>
<g>
</g>
<g>
</g>
</svg>
